# xmcd
#
# Track frame offsets: 
#        150
#        13812
#        38720
#        63503
#        83914
#        105551
#        128769
#        149734
#
# Disc length: 2353 seconds
#
# Revision: 3
# Processed by: cddbd v1.5.2PL0 Copyright (c) Steve Scherf et al.
# Submitted via: ExactAudioCopyFreeDBPlugin 1.0
#
DISCID=6c092f08
DTITLE=Keb' Mo' - That Hot Pink Blues Album  Disc 1
DYEAR=2015
DGENRE=Modern Electric Blues
TTITLE0=Tell Everybody I Know (Live at Charleston SC)
TTITLE1=Somebody Hurt You  (Live at Calabogie ON)
TTITLE2=Henry (Live at Kent OH)
TTITLE3=Life Is Beautiful (Live at Nashville TN)
TTITLE4=She Just Wants To Dance (Live at West Hampton NY)
TTITLE5=The Worst Is Yet To Come (Live at Denver CO)
TTITLE6=Government Cheese (Live at Wheeling WV)
TTITLE7=The Door (Live at Saratoga CA)
EXTD=
EXTT0=
EXTT1=
EXTT2=
EXTT3=
EXTT4=
EXTT5=
EXTT6=
EXTT7=
PLAYORDER=
